<svg width="256" height="37" viewBox="0 0 256 37" fill="none" xmlns="http://www.w3.org/2000/svg">
<g clip-path="url(#clip0_89_680)">
<path d="M210.336 33.9673V32.4119C210.336 31.543 210.509 30.8304 210.865 30.2917C211.221 29.7442 211.732 29.388 212.409 29.2142V27.3546H214.37V29.2055C215.064 29.3706 215.594 29.7269 215.941 30.283C216.288 30.8391 216.461 31.5603 216.461 32.438V36.9739H214.5V32.3772C214.5 31.7689 214.414 31.3257 214.223 31.0564C214.04 30.7783 213.754 30.6393 213.372 30.6393C213.008 30.6393 212.739 30.7783 212.557 31.0477C212.375 31.3257 212.288 31.7689 212.288 32.3858V33.9673H210.327H210.336Z" fill="#2CB34A"/>
<path d="M223.593 33.0549H226.214L226.682 35.488H226.361C225.979 35.488 225.65 35.4011 225.381 35.2186C225.112 35.0362 224.93 34.7928 224.843 34.48H223.585V36.9739H221.615V34.48H220.956C220.053 34.48 219.351 34.2715 218.839 33.8544C218.327 33.4373 218.075 32.8638 218.075 32.1165C218.075 31.4995 218.249 30.9868 218.587 30.5784C218.925 30.1787 219.437 29.9006 220.123 29.7703C220.574 29.6834 220.973 29.5183 221.329 29.2837C221.684 29.0491 221.962 28.7623 222.179 28.4147C222.396 28.0672 222.517 27.7109 222.561 27.3199H224.504C224.478 27.7543 224.392 28.1367 224.218 28.4582C224.053 28.7797 223.819 29.0665 223.533 29.3184C223.246 29.5704 222.838 29.8137 222.327 30.0571C222.726 30.2222 223.038 30.4915 223.255 30.8652C223.472 31.2388 223.576 31.6994 223.576 32.2468V33.0463L223.593 33.0549ZM220.019 32.0991C220.019 32.4467 220.114 32.69 220.296 32.8377C220.478 32.9854 220.765 33.0549 221.147 33.0549H221.632V32.2294C221.632 31.4995 221.372 31.1432 220.843 31.1432C220.583 31.1432 220.383 31.2215 220.236 31.3779C220.088 31.5343 220.019 31.7776 220.019 32.0991Z" fill="#2CB34A"/>
<path d="M230.934 37C229.91 37 229.12 36.7654 228.574 36.2961C228.027 35.8269 227.749 35.1404 227.749 34.2454C227.749 33.8196 227.819 33.4286 227.966 33.0636C228.114 32.7074 228.339 32.3424 228.643 31.9774C228.947 31.6125 229.476 31.0998 230.231 30.4481C230.647 30.0831 230.96 29.666 231.15 29.1881C231.35 28.7102 231.445 28.0845 231.445 27.2938H233.424C233.424 28.2496 233.259 29.0925 232.929 29.8138C232.599 30.535 232.105 31.1606 231.428 31.7081C230.829 32.1686 230.396 32.6031 230.118 32.9941C229.84 33.3852 229.701 33.8022 229.701 34.2367C229.701 34.6104 229.814 34.9058 230.031 35.1404C230.257 35.375 230.552 35.488 230.925 35.488C231.367 35.488 231.697 35.349 231.923 35.0709C232.148 34.7929 232.261 34.3931 232.261 33.8631V33.0549H234.239V33.7588C234.239 35.9138 233.137 36.9826 230.934 36.9826" fill="#2CB34A"/>
<path d="M236.521 32.6726C236.521 32.0644 236.608 31.5343 236.782 31.0651C235.914 30.5871 235.48 29.6834 235.48 28.3626V27.3459H237.424V28.4234C237.424 29.1447 237.536 29.6139 237.753 29.8398C238.248 29.5096 238.864 29.3445 239.619 29.3445C240.608 29.3445 241.363 29.6313 241.875 30.2135C242.387 30.787 242.647 31.6212 242.647 32.7074V33.9761H240.686V32.6466C240.686 32.0383 240.591 31.5951 240.408 31.3257C240.226 31.0477 239.94 30.9087 239.558 30.9087C239.176 30.9087 238.916 31.0477 238.742 31.3257C238.56 31.6038 238.474 32.047 238.474 32.6552V36.9739H236.513V32.6813L236.521 32.6726Z" fill="#2CB34A"/>
<path d="M247.063 33.2114C246.881 33.2461 246.655 33.2635 246.386 33.2635C245.475 33.2635 244.79 33.0289 244.313 32.5596C243.844 32.0904 243.601 31.4126 243.601 30.535C243.601 29.918 243.749 29.3619 244.052 28.8666C244.347 28.3713 244.781 27.989 245.337 27.7109C245.892 27.4328 246.534 27.2938 247.271 27.2938H253.137C254.039 27.2938 254.742 27.5023 255.245 27.9194C255.748 28.3365 256 28.91 256 29.6573C256 30.4568 255.774 31.0911 255.332 31.5517C254.889 32.0122 254.265 32.2468 253.475 32.2468H250.603V28.771H249.467V32.2468L247.523 36.887H245.501L247.063 33.2114ZM246.482 31.7602C246.864 31.7602 247.202 31.682 247.506 31.5169V28.771H247.332C246.95 28.771 246.629 28.8492 246.369 29.0143C246.109 29.1707 245.901 29.388 245.762 29.6573C245.623 29.9267 245.554 30.2222 245.554 30.5437C245.554 30.926 245.64 31.2215 245.805 31.4387C245.979 31.6559 246.204 31.7602 246.491 31.7602M252.564 28.7797V30.7696H253.041C253.727 30.7696 254.074 30.422 254.074 29.7356C254.074 29.414 253.978 29.1794 253.805 29.023C253.623 28.8666 253.371 28.7884 253.05 28.7884H252.573L252.564 28.7797Z" fill="#2CB34A"/>
<path d="M174.25 1.38163C172.333 -1.93777 161.192 0.921087 149.357 7.76843C137.522 14.6071 129.479 22.8448 131.397 26.1642C133.045 29.0143 141.505 27.2938 151.37 22.419C151.813 22.1757 151.778 21.6543 151.205 21.8455C145.123 24.0874 140.056 24.2264 138.746 21.8455C137.002 18.6912 142.529 12.2957 151.084 7.56857C159.639 2.84147 167.986 1.56411 169.73 4.71841C170.528 6.16087 169.799 8.2898 167.951 10.6186C167.951 10.6273 167.942 10.6447 167.925 10.6534C167.239 11.5049 167.743 11.7569 168.229 11.3485C172.949 7.16017 175.404 3.38891 174.25 1.39032" fill="#EF373E"/>
<path d="M156.507 23.2097C155.457 22.923 154.589 22.5406 153.93 22.054L155.127 19.3516C155.83 19.8034 156.576 20.1423 157.366 20.3769C158.155 20.6116 158.953 20.7332 159.752 20.7332C160.55 20.7332 161.183 20.6202 161.617 20.3943C162.051 20.1684 162.268 19.8556 162.268 19.4472C162.268 19.0822 162.068 18.7781 161.678 18.5434C161.287 18.3088 160.541 18.0742 159.465 17.8483C158.103 17.5789 157.036 17.24 156.281 16.8403C155.526 16.4406 154.997 15.9713 154.685 15.4326C154.381 14.8852 154.233 14.2334 154.233 13.4601C154.233 12.5824 154.485 11.783 154.988 11.0705C155.491 10.3579 156.186 9.80179 157.097 9.40207C157.999 9.00235 159.031 8.80249 160.203 8.80249C161.244 8.80249 162.259 8.95021 163.24 9.23697C164.22 9.52372 164.984 9.91475 165.539 10.384L164.359 13.0864C163.725 12.6433 163.057 12.2957 162.355 12.0611C161.652 11.8264 160.949 11.7048 160.246 11.7048C159.543 11.7048 159.005 11.8351 158.58 12.0958C158.164 12.3652 157.956 12.7215 157.956 13.1646C157.956 13.4079 158.025 13.6078 158.181 13.7729C158.329 13.938 158.606 14.0944 159.014 14.2508C159.422 14.4072 160.029 14.5723 160.845 14.7461C162.155 15.0329 163.188 15.3718 163.942 15.7715C164.689 16.1712 165.226 16.6404 165.53 17.1705C165.843 17.7006 165.999 18.3436 165.999 19.0909C165.999 20.4986 165.452 21.6109 164.359 22.4103C163.266 23.2184 161.721 23.6181 159.734 23.6181C158.658 23.6181 157.582 23.4791 156.533 23.1923" fill="#2CB34A"/>
<path d="M174.988 20.2119C175.343 19.76 175.517 19.117 175.517 18.2828C175.517 17.4486 175.343 16.7708 174.988 16.3276C174.632 15.8758 174.137 15.6412 173.487 15.6412C172.836 15.6412 172.35 15.8758 171.986 16.345C171.621 16.8142 171.439 17.4746 171.439 18.3262C171.439 19.1778 171.612 19.7861 171.968 20.2292C172.324 20.6637 172.827 20.8896 173.487 20.8896C174.146 20.8896 174.641 20.6637 174.988 20.2205M179.126 13.1473V23.4617H175.517V22.0627C175.222 22.5493 174.788 22.9317 174.215 23.2097C173.651 23.4878 173.027 23.6268 172.35 23.6268C171.465 23.6268 170.684 23.4096 169.999 22.9751C169.313 22.5406 168.775 21.9237 168.385 21.1156C168.003 20.3074 167.803 19.3777 167.803 18.3262C167.803 17.2748 168.003 16.3103 168.393 15.4847C168.784 14.6592 169.322 14.0162 170.016 13.5557C170.71 13.0951 171.482 12.8692 172.35 12.8692C173.027 12.8692 173.643 13.0169 174.207 13.3037C174.771 13.5904 175.205 13.9815 175.517 14.4681V13.1473H179.126Z" fill="#2CB34A"/>
<path d="M181.165 13.1386V12.8605C181.165 11.4615 181.53 10.3753 182.25 9.59324C182.97 8.81119 184.029 8.41147 185.408 8.41147C186.198 8.41147 186.831 8.50705 187.317 8.69822V11.5223C186.926 11.4267 186.597 11.3833 186.345 11.3833C185.911 11.3833 185.556 11.5049 185.269 11.7569C184.983 12.0089 184.844 12.3913 184.844 12.904V13.1473H186.848V15.8497H184.844V23.4617H181.174V15.8497C181.174 15.8497 181.226 13.1473 181.174 13.1473" fill="#2CB34A"/>
<path d="M195.143 20.2119C195.499 19.76 195.672 19.117 195.672 18.2828C195.672 17.4486 195.499 16.7708 195.143 16.3276C194.796 15.8758 194.293 15.6412 193.642 15.6412C192.991 15.6412 192.505 15.8758 192.141 16.345C191.777 16.8142 191.594 17.4746 191.594 18.3262C191.594 19.1778 191.768 19.7861 192.124 20.2292C192.471 20.6637 192.983 20.8896 193.642 20.8896C194.301 20.8896 194.796 20.6637 195.143 20.2205M199.282 13.1473V23.4617H195.672V22.0627C195.377 22.5493 194.944 22.9317 194.371 23.2097C193.807 23.4878 193.182 23.6268 192.505 23.6268C191.629 23.6268 190.848 23.4096 190.154 22.9751C189.469 22.5406 188.931 21.9237 188.54 21.1156C188.159 20.3074 187.959 19.3777 187.959 18.3262C187.959 17.2748 188.159 16.3103 188.549 15.4847C188.939 14.6592 189.486 14.0162 190.171 13.5557C190.866 13.0951 191.638 12.8692 192.505 12.8692C193.182 12.8692 193.798 13.0169 194.362 13.3037C194.926 13.5904 195.36 13.9815 195.672 14.4681V13.1473H199.282Z" fill="#2CB34A"/>
<path d="M209.112 13.1212V16.4753C208.531 16.2059 207.976 16.0669 207.438 16.0669C205.902 16.0669 205.13 16.8055 205.13 18.2827V23.4617H201.468V16.1104C201.468 15.0068 201.416 14.0162 201.303 13.1472H204.739L204.965 14.8765C205.208 14.2421 205.598 13.7468 206.136 13.4079C206.674 13.069 207.281 12.9039 207.95 12.9039C208.444 12.9039 208.835 12.9821 209.104 13.1299" fill="#2CB34A"/>
<path d="M214.032 13.1385H210.362V23.453H214.032V13.1385Z" fill="#2CB34A"/>
<path d="M217.242 22.1931C216.253 21.2459 215.767 19.9512 215.767 18.3175C215.767 17.2313 216.001 16.2755 216.487 15.4587C216.973 14.6332 217.641 13.9901 218.509 13.5383C219.377 13.0864 220.374 12.8605 221.511 12.8605C222.266 12.8605 223.012 12.9735 223.741 13.1907C224.47 13.4166 225.051 13.7208 225.485 14.0944L224.548 16.6318C224.183 16.3363 223.758 16.1017 223.272 15.9279C222.778 15.7541 222.318 15.6585 221.867 15.6585C221.112 15.6585 220.53 15.8758 220.123 16.3102C219.715 16.7447 219.515 17.3877 219.515 18.2393C219.515 19.0909 219.715 19.76 220.123 20.2032C220.53 20.6463 221.12 20.8636 221.884 20.8636C222.327 20.8636 222.795 20.7767 223.272 20.6029C223.749 20.4291 224.175 20.1858 224.539 19.8903L225.476 22.3842C225.034 22.7753 224.435 23.0794 223.706 23.2966C222.969 23.5139 222.179 23.6181 221.337 23.6181C219.593 23.6181 218.231 23.1489 217.242 22.2017" fill="#2CB34A"/>
<path d="M233.866 18.2393C233.866 17.3443 233.693 16.6839 233.363 16.2581C233.033 15.8323 232.539 15.6238 231.871 15.6238C231.203 15.6238 230.691 15.8323 230.344 16.2581C230.005 16.6839 229.832 17.3443 229.832 18.2393C229.832 19.1343 230.005 19.8121 230.344 20.2379C230.682 20.6637 231.185 20.8809 231.871 20.8809C233.198 20.8809 233.858 20.0033 233.858 18.2393M228.869 22.9664C228.018 22.5319 227.359 21.915 226.899 21.0982C226.439 20.2814 226.205 19.3342 226.205 18.2393C226.205 17.1444 226.431 16.1886 226.899 15.3718C227.359 14.5636 228.018 13.938 228.869 13.5035C229.719 13.069 230.717 12.8518 231.871 12.8518C233.025 12.8518 233.996 13.069 234.838 13.5122C235.688 13.9554 236.339 14.5723 236.799 15.3805C237.259 16.1799 237.493 17.1357 237.493 18.2306C237.493 19.3255 237.268 20.2814 236.799 21.0808C236.339 21.8889 235.688 22.5059 234.838 22.949C233.996 23.3922 232.999 23.6094 231.871 23.6094C230.743 23.6094 229.719 23.3922 228.869 22.9577" fill="#2CB34A"/>
<path d="M255.132 13.9467C255.705 14.6766 255.991 15.7976 255.991 17.3008V23.453H252.321V17.4051C252.321 16.7969 252.234 16.3537 252.043 16.0843C251.861 15.8149 251.549 15.6759 251.124 15.6759C250.612 15.6759 250.213 15.8671 249.926 16.2407C249.64 16.6231 249.501 17.1531 249.501 17.8483V23.453H245.831V17.4051C245.831 16.7969 245.736 16.3537 245.545 16.0843C245.354 15.8149 245.05 15.6759 244.634 15.6759C244.122 15.6759 243.723 15.8671 243.445 16.2407C243.167 16.6231 243.029 17.1531 243.029 17.8483V23.453H239.35V16.1017C239.35 14.9894 239.298 14.0075 239.185 13.1386H242.638L242.82 14.581C243.133 14.0249 243.567 13.5991 244.131 13.295C244.694 12.9995 245.337 12.8518 246.065 12.8518C247.54 12.8518 248.547 13.4775 249.067 14.7201C249.432 14.1552 249.918 13.6947 250.516 13.3558C251.115 13.0169 251.775 12.8518 252.477 12.8518C253.666 12.8518 254.551 13.2168 255.124 13.9467" fill="#2CB34A"/>
<path d="M214.032 8.35065H210.362V11.6614H214.032V8.35065Z" fill="#2CB34A"/>
<path d="M117.176 4.45773H116.031V31.0042H117.176V4.45773Z" fill="#2CB34A"/>
<path d="M36.7276 4.45773H27.5305C26.177 4.45773 25.0664 5.56998 25.0664 6.92555V28.5451C25.0664 29.9007 26.177 31.0129 27.5305 31.0129H36.7276C38.0812 31.0129 39.1917 29.9007 39.1917 28.5451V6.91686C39.1917 5.5613 38.0812 4.44904 36.7276 4.44904M38.0204 27.5197H26.2377V7.09065H38.0204V27.5284V27.5197Z" fill="#2CB34A"/>
<path d="M17.8909 23.453V16.0669C17.8909 14.8938 17.7434 14.0857 17.4571 13.6425C17.1708 13.1994 16.6675 12.9735 15.9474 12.9735C15.0537 12.9735 14.4377 13.2863 14.0906 13.9032C13.7436 14.5289 13.57 15.7975 13.57 17.7179V23.453H8.96282V16.0669C8.96282 14.8765 8.824 14.0683 8.53767 13.6252C8.25135 13.1907 7.74811 12.9648 7.03664 12.9648C6.14296 12.9648 5.51825 13.2689 5.16252 13.8772C4.80678 14.4854 4.62457 15.7628 4.62457 17.7006V23.4356H0V9.92343H4.68531V12.2783C5.24928 11.3224 5.90002 10.6186 6.62884 10.1667C7.36634 9.71488 8.234 9.48895 9.23179 9.48895C10.325 9.48895 11.2274 9.6975 11.9302 10.1233C12.633 10.5491 13.1362 11.1834 13.4399 12.035C13.9692 11.1747 14.6112 10.5404 15.3661 10.1146C16.1209 9.6975 17.0146 9.48895 18.0384 9.48895C18.854 9.48895 19.5655 9.62799 20.1729 9.89736C20.7802 10.1667 21.2921 10.5751 21.7086 11.1226C22.0383 11.5484 22.2726 12.0524 22.4114 12.6259C22.5502 13.1994 22.6196 14.1292 22.6196 15.4152V23.453H17.8996H17.8909Z" fill="#2CB34A"/>
<path d="M41.1613 29.4314V9.92344H45.5516V12.2001C46.159 11.2877 46.8444 10.6099 47.5993 10.1667C48.3541 9.72358 49.2044 9.49765 50.1241 9.49765C52.0243 9.49765 53.534 10.1494 54.6619 11.4441C55.7899 12.7475 56.3452 14.5028 56.3452 16.7273C56.3452 18.9519 55.7812 20.6376 54.6619 21.9758C53.5427 23.314 52.085 23.9744 50.2803 23.9744C49.135 23.9744 48.2066 23.7659 47.4952 23.3488C46.775 22.9317 46.1329 22.2365 45.5777 21.272C45.621 21.5413 45.6557 21.8628 45.6731 22.2539C45.6904 22.6449 45.7078 23.1141 45.7078 23.6703V29.4314H41.1613ZM45.3868 16.7273C45.3868 17.7788 45.6644 18.613 46.211 19.2212C46.7577 19.8295 47.5125 20.1336 48.4756 20.1336C49.4387 20.1336 50.2022 19.8295 50.7575 19.2212C51.3128 18.613 51.5905 17.7788 51.5905 16.7273C51.5905 15.6759 51.3128 14.8417 50.7575 14.2334C50.2022 13.6252 49.4387 13.321 48.4669 13.321C47.4952 13.321 46.749 13.6252 46.2024 14.2334C45.6557 14.8417 45.3781 15.6672 45.3781 16.7273" fill="#2CB34A"/>
<path d="M72.1364 17.6397H61.8634C61.8634 18.6825 62.141 19.4906 62.6616 20.0554C63.1909 20.6202 63.9371 20.907 64.9002 20.907C65.6203 20.907 66.2277 20.768 66.7222 20.4986C67.2168 20.2292 67.5899 19.8208 67.8502 19.2907L71.4336 20.7419C71.0084 21.7759 70.2449 22.5754 69.1603 23.1402C68.0758 23.705 66.7396 23.9831 65.1605 23.9831C62.8091 23.9831 60.9177 23.3314 59.4947 22.0193C58.0718 20.7071 57.3603 18.9866 57.3603 16.8403C57.3603 14.694 58.0718 12.9821 59.4947 11.5918C60.9177 10.2015 62.7137 9.49765 64.8915 9.49765C67.0693 9.49765 68.9 10.2015 70.1928 11.6179C71.4856 13.0256 72.1277 14.9634 72.1277 17.4225V17.6484L72.1364 17.6397ZM67.4424 14.946C67.3556 14.1813 67.0606 13.5643 66.5661 13.0951C66.0715 12.6259 65.4641 12.4 64.744 12.4C63.9718 12.4 63.3471 12.6085 62.8959 13.0343C62.436 13.4601 62.1324 14.0944 61.9762 14.946H67.4511H67.4424Z" fill="#2CB34A"/>
<path d="M73.0648 22.3321L74.0539 18.6912C74.748 19.2994 75.5115 19.7687 76.3445 20.0902C77.1774 20.4117 78.019 20.5768 78.8693 20.5768C79.468 20.5768 79.9192 20.4812 80.2315 20.29C80.5439 20.0989 80.7001 19.8208 80.7001 19.4559C80.7001 18.8563 80.0667 18.4131 78.8173 18.1177C78.4095 18.0221 78.0798 17.9352 77.8282 17.8657C76.4052 17.4746 75.364 16.9533 74.7133 16.3189C74.0712 15.6759 73.7415 14.8504 73.7415 13.8337C73.7415 12.5216 74.2361 11.4702 75.2165 10.6881C76.2057 9.90607 77.5418 9.50635 79.2251 9.50635C80.0927 9.50635 80.969 9.61062 81.8714 9.81048C82.7651 10.0103 83.6848 10.3232 84.6219 10.7403L83.6327 14.0249C82.9993 13.5991 82.3573 13.2689 81.7065 13.0517C81.0558 12.8257 80.4051 12.7128 79.7543 12.7128C79.2077 12.7128 78.7999 12.7997 78.5223 12.9648C78.2446 13.1386 78.1058 13.3819 78.1058 13.7034C78.1058 14.1813 78.7305 14.5897 79.9799 14.9199C80.2663 14.9981 80.4832 15.059 80.622 15.0937C82.2705 15.5716 83.4245 16.1191 84.0666 16.7621C84.7173 17.4051 85.0383 18.2654 85.0383 19.3603C85.0383 20.7419 84.5091 21.8629 83.4505 22.7144C82.392 23.566 80.9864 23.9918 79.2337 23.9918C78.0451 23.9918 76.9432 23.8528 75.928 23.5834C74.9129 23.314 73.9584 22.8969 73.0648 22.3408" fill="#2CB34A"/>
<path d="M102.07 9.92343V23.453H97.6974V21.2546C97.0727 22.193 96.3699 22.8795 95.589 23.314C94.8081 23.7485 93.8884 23.9744 92.8385 23.9744C91.0338 23.9744 89.5935 23.314 88.5176 21.9932C87.4331 20.6811 86.8951 18.9084 86.8951 16.6926C86.8951 14.4767 87.4591 12.7301 88.5871 11.4354C89.715 10.132 91.2334 9.48895 93.1422 9.48895C94.1574 9.48895 95.0337 9.70619 95.7712 10.1407C96.5087 10.5751 97.1421 11.2442 97.6627 12.1479V9.92343H102.062H102.07ZM97.8796 16.6752C97.8796 15.6238 97.6019 14.7896 97.038 14.1726C96.474 13.5556 95.7105 13.2515 94.7387 13.2515C93.7669 13.2515 93.0034 13.5556 92.4481 14.1726C91.8928 14.7809 91.6152 15.6238 91.6152 16.6839C91.6152 17.744 91.8928 18.5695 92.4568 19.1778C93.0207 19.786 93.7843 20.0902 94.7474 20.0902C95.7105 20.0902 96.4913 19.786 97.0466 19.1778C97.6106 18.5695 97.8883 17.7353 97.8883 16.6839" fill="#2CB34A"/>
<path d="M31.5043 15.9366C31.0618 15.7454 30.576 15.3196 30.064 14.5202C30.064 14.5202 28.0337 17.6484 25.6477 17.0489C28.0337 17.7527 30.0033 17.0402 31.5043 15.9366Z" fill="#7A4942"/>
<path d="M34.8882 11.8873C34.8882 11.8873 31.5304 18.7781 25.6477 17.0402C25.6477 17.0402 36.3111 20.3335 40.2155 14.4594L34.8882 11.8873Z" fill="#EF373E"/>
</g>
<defs>
<clipPath id="clip0_89_680">
<rect width="256" height="37" fill="white"/>
</clipPath>
</defs>
</svg>
